<?xml version="1.0" encoding="utf-8"?>
<!-- Generator: Adobe Illustrator 24.0.2, SVG Export Plug-In . SVG Version: 6.00 Build 0)  -->
<svg version="1.1" id="Layer_1" xmlns="http://www.w3.org/2000/svg" xmlns:xlink="http://www.w3.org/1999/xlink" x="0px" y="0px"
	 viewBox="0 0 506.39 248.11" style="enable-background:new 0 0 506.39 248.11;" xml:space="preserve">
<style type="text/css">
	.st0{fill:#272265;}
	.st1{fill:#282365;}
	.st2{fill:#282366;}
</style>
<g>
	<path class="st0" d="M464.31,82.75c-1.13-1.73-2.68-1.83-3.93-0.19c-2.05,2.68-4,5.43-5.99,8.15c-3.45,4.71-6.9,9.43-10.34,14.14
		c-1.42,1.95-2.85,3.9-4.27,5.85c-0.11,0.16-0.22,0.31-0.34,0.46c-0.52,0.63-0.69,0.64-1.19,0.02c-0.75-0.94-1.44-1.94-2.14-2.92
		c-4.33-5.97-8.7-11.92-13.03-17.89c-1.8-2.49-3.64-4.95-5.43-7.45c-0.11-0.16-0.23-0.31-0.34-0.46c-0.86-1.1-2.03-1.38-3.02-0.72
		c-1,0.66-1.32,2.1-0.7,3.22c0.34,0.63,0.79,1.18,1.22,1.76c4.77,6.47,9.46,12.99,14.27,19.43c2.23,2.99,4.4,6.03,6.68,8.98
		c0.65,0.84,0.94,1.71,0.94,2.8c-0.03,9.3-0.02,18.59-0.02,27.89c0,0.63,0.04,1.26,0.21,1.87c0.28,1.03,1.07,1.67,2.08,1.68
		c0.91,0.01,1.81-0.72,2.09-1.69c0.15-0.51,0.14-1.03,0.14-1.55c0-9.52,0.01-19.03-0.01-28.55c0-0.96,0.27-1.72,0.83-2.49
		c7.27-9.84,14.5-19.7,21.73-29.57c0.29-0.39,0.44-0.96,1.05-1.06c0-0.44,0-0.88,0-1.32C464.46,83.18,464.42,82.92,464.31,82.75z"/>
	<path class="st0" d="M459.98,82.63c-4.39,6.22-8.96,12.32-13.45,18.47c-2.56,3.49-5.11,6.99-7.68,10.5
		c-0.1-0.1-0.18-0.17-0.24-0.26c-3.15-4.31-6.29-8.63-9.44-12.94c-3.92-5.37-7.84-10.74-11.77-16.11c-1.02-1.39-2.54-1.5-3.74-0.31
		c-0.76,0.75-0.82,2.37-0.08,3.39c1.49,2.06,3.01,4.1,4.51,6.15c2.84,3.88,5.68,7.77,8.53,11.65c3.12,4.24,6.26,8.48,9.4,12.71
		c0.36,0.49,0.51,0.98,0.51,1.58c-0.01,9.62-0.01,19.25-0.01,28.87c0,0.44,0.01,0.88,0.08,1.31c0.22,1.29,1.55,2.15,2.83,1.86
		c1.26-0.29,1.87-1.16,1.87-2.7c0-9.87,0-19.74-0.01-29.61c0-0.55,0.14-0.99,0.46-1.43c3.77-5.11,7.53-10.24,11.3-15.36
		c3.9-5.32,7.81-10.63,11.71-15.95c-0.6,0.1-0.76,0.66-1.05,1.06c-7.23,9.86-14.46,19.73-21.73,29.57
		c-0.57,0.77-0.84,1.54-0.83,2.49c0.02,9.52,0.01,19.03,0.01,28.55c0,0.52,0,1.04-0.14,1.55c-0.28,0.97-1.18,1.71-2.09,1.69
		c-1.01-0.02-1.8-0.65-2.08-1.68c-0.17-0.61-0.21-1.24-0.21-1.87c0.01-9.3-0.01-18.59,0.02-27.89c0-1.08-0.29-1.96-0.94-2.8
		c-2.28-2.95-4.44-5.99-6.68-8.98c-4.81-6.43-9.51-12.96-14.27-19.43c-0.42-0.57-0.87-1.13-1.22-1.76c-0.62-1.13-0.3-2.56,0.7-3.22
		c0.99-0.66,2.16-0.38,3.02,0.72c0.12,0.15,0.23,0.31,0.34,0.46c1.79,2.5,3.62,4.96,5.43,7.45c4.33,5.97,8.7,11.91,13.03,17.89
		c0.71,0.98,1.39,1.97,2.14,2.92c0.5,0.63,0.68,0.62,1.19-0.02c0.12-0.15,0.23-0.31,0.34-0.46c1.42-1.95,2.85-3.9,4.27-5.85
		c3.45-4.71,6.9-9.43,10.34-14.14c1.99-2.72,3.95-5.47,5.99-8.15c1.25-1.64,2.8-1.54,3.93,0.19c0.11,0.17,0.15,0.44,0.45,0.4
		C463.75,80.63,461.33,80.72,459.98,82.63z"/>
	<path class="st0" d="M55.37,177.47c1.18,1.91,2.36,3.83,3.55,5.73c0.14,0.23,0.38,0.45,0.23,0.76c0.02,0.01,0.05,0.01,0.07,0.02
		c1.34,1.94,2.49,4,3.72,6.01c2.09,3.42,4.05,6.9,5.97,10.41c0.74,1.36,1.72,2.54,2.88,3.57c0.84,0.75,1.84,1.18,2.97,1.3
		c0.66,0.1,1.32,0.13,1.96-0.08c1.41-0.38,2.84-0.15,4.26-0.21c0.59,0.02,1.19,0.08,1.78-0.05c0.83-0.16,1.71-0.13,2.38-0.78
		c0.26-0.34,0.18-0.7,0.04-1.06c-1.36-3.01-3.16-5.77-4.81-8.62c-3.08-5.31-6.26-10.57-9.45-15.82c-0.48-0.79-1.08-1.51-1.37-2.43
		c-0.46-1.43-0.42-2.81,0.29-4.14c1.16-2.18,2.41-4.31,3.59-6.47c2.08-3.83,4.09-7.7,6.29-11.47c1.53-2.63,3.13-5.22,4.83-7.75
		c1.04-1.55,1.89-3.21,2.41-5.02c0.98-3.42,0.45-6.62-1.36-9.64c-1.05-1.74-2.19-3.42-3.87-4.64c-0.27-0.18-0.54-0.18-0.82-0.02
		c-1.2,0.8-1.72,2.11-2.38,3.29c-3.35,6-6.7,12-10.07,18c-3.64,6.47-7.31,12.92-10.96,19.38c-0.69,1.22-1.41,2.41-2.07,3.64
		c-0.37,0.68-0.63,1.4-0.72,2.17c-0.12,0.67-0.12,1.33,0.01,2c0.09,0.49,0.24,0.97,0.33,1.46c0,0.02-0.01,0.04-0.01,0.06
		C55.2,177.16,55.28,177.32,55.37,177.47z"/>
	<path class="st0" d="M55.02,177.09c0-0.02,0.01-0.04,0.01-0.06c-0.08-0.49-0.24-0.97-0.33-1.46c-0.13-0.66-0.13-1.33-0.01-2
		c0.09-0.77,0.35-1.49,0.72-2.17c0.67-1.23,1.38-2.43,2.07-3.64c3.65-6.46,7.32-12.91,10.96-19.38c3.37-5.99,6.72-11.99,10.07-18
		c0.66-1.18,1.18-2.49,2.38-3.29c0.28-0.16,0.55-0.16,0.82,0.02c1.68,1.22,2.82,2.9,3.87,4.64c1.82,3.01,2.35,6.22,1.36,9.64
		c-0.52,1.81-1.37,3.47-2.41,5.02c-1.69,2.53-3.29,5.12-4.83,7.75c-2.2,3.77-4.2,7.64-6.29,11.47c-1.18,2.17-2.42,4.3-3.59,6.47
		c-0.71,1.33-0.75,2.71-0.29,4.14c0.29,0.91,0.89,1.63,1.37,2.43c3.19,5.25,6.37,10.51,9.45,15.82c1.65,2.84,3.45,5.61,4.81,8.62
		c0.14,0.36,0.22,0.72-0.04,1.06c-0.66,0.65-1.55,0.62-2.38,0.78c-0.59,0.12-1.18,0.07-1.78,0.05c-1.42,0.06-2.85-0.16-4.26,0.21
		c-0.65,0.21-1.3,0.18-1.96,0.08c-1.13-0.13-2.12-0.56-2.97-1.3c-1.16-1.02-2.13-2.21-2.88-3.57c-1.92-3.51-3.88-7-5.97-10.41
		c-1.23-2.01-2.38-4.07-3.72-6.01c-0.03-0.01-0.05-0.01-0.07-0.02c-0.01,0.02-0.01,0.03-0.02,0.05c1.3,2.14,2.56,4.31,3.9,6.43
		c2.48,3.91,4.36,8.19,7.05,11.97c1.11,1.56,2.51,2.84,4.57,3.03c0.65,0,1.31,0,1.96,0c1.47-0.35,2.96-0.21,4.44-0.21
		c0.22-0.08,0.44-0.09,0.66-0.09c0.38-0.03,0.77-0.03,1.15-0.03c0.89-0.14,1.82-0.13,2.5-0.87c0.01-0.38,0.01-0.76,0.02-1.14
		c-0.48-1.06-0.98-2.1-1.57-3.1c-1.95-3.3-3.86-6.63-5.83-9.93c-2.45-4.11-4.87-8.25-7.42-12.29c-1.35-2.13-1.49-4.13-0.21-6.28
		c2.13-3.58,4.05-7.26,6.03-10.93c2.6-4.81,5.28-9.56,8.35-14.1c1.54-2.29,2.66-4.78,2.89-7.57c0.24-2.93-0.7-5.56-2.29-7.97
		c-1.01-1.52-2.02-3.05-3.6-4.06c-0.27,0-0.54,0-0.81,0c-0.54,0.19-0.85,0.61-1.15,1.07c-1.98,3.04-3.63,6.28-5.39,9.45
		c-2.19,3.92-4.38,7.83-6.57,11.75c-1.75,3.12-3.49,6.25-5.31,9.33c-2.08,3.54-4.05,7.15-6.05,10.75c-0.76,1.36-1.78,2.62-1.92,4.26
		c0,0.71,0,1.42,0.01,2.13c0.1,0.49,0.12,0.99,0.38,1.44l0,0v0C54.95,177.06,54.99,177.08,55.02,177.09z"/>
	<path class="st0" d="M58.92,183.21c-1.19-1.91-2.37-3.82-3.55-5.73c-0.09-0.15-0.17-0.32-0.35-0.39c0,0.05-0.01,0.1-0.01,0.15
		c0.24,0.41,0.47,0.82,0.72,1.22c1.12,1.83,2.24,3.67,3.36,5.5c0.02,0,0.04,0.01,0.06,0.02C59.31,183.66,59.07,183.44,58.92,183.21z
		"/>
	<path class="st0" d="M59.09,183.96c0.01,0.02,0.03,0.04,0.04,0.06c0.01-0.02,0.01-0.03,0.02-0.05
		C59.13,183.97,59.11,183.96,59.09,183.96z"/>
	<path class="st0" d="M55.02,177.09c-0.04-0.01-0.07-0.03-0.12-0.03v0c0.03,0.06,0.07,0.12,0.1,0.18
		C55.02,177.19,55.02,177.14,55.02,177.09z"/>
	<path class="st0" d="M145.43,56.68c1.43,2.96,3.14,5.77,4.73,8.65c1.73,3.13,3.59,6.18,5.4,9.27c1.38,2.35,2.71,4.73,4.18,7.02
		c1.13,1.76,1.36,3.51,0.37,5.33c-1.37,2.53-2.84,5.01-4.26,7.51c-1.66,2.92-3.26,5.87-4.93,8.78c-1.56,2.71-3.19,5.38-4.96,7.96
		c-1.91,2.78-3.67,5.63-3.83,9.14c0,0.49,0,0.98,0,1.47c0.08,1.69,0.61,3.25,1.32,4.76c0.83,1.76,1.96,3.33,3.28,4.74
		c0.94,1.01,1.61,1.2,2.5,0.47c0.27-0.22,0.5-0.49,0.69-0.8c1.74-2.8,3.3-5.71,4.94-8.57c3.61-6.28,7.24-12.54,10.88-18.8
		c2.98-5.11,6-10.2,8.98-15.31c1.3-2.22,1.48-4.53,0.14-6.79c-4.42-7.47-9-14.85-13.04-22.54c-1.31-2.49-2.99-4.68-5.99-5.33
		c-0.66,0-1.31,0-1.97,0c-1.85,0.37-3.72,0.16-5.58,0.2c-0.11,0.06-0.23,0.07-0.35,0.08c-0.27,0.04-0.54,0.05-0.82,0.04
		c-0.32,0.07-0.64,0.16-0.96,0.2c-0.78,0.09-1.07,0.54-1.02,1.28C145.16,55.89,145.24,56.29,145.43,56.68z"/>
	<path class="st0" d="M112.39,90.41c1.09,1.96,2.08,3.98,3.19,5.93c0.98,1.72,2.22,3.23,3.85,4.4c1.92,1.39,4.08,2.1,6.45,2.19
		c0.71,0,1.42,0,2.13,0c0.92-0.06,1.83-0.16,2.73-0.37c0.53-0.12,1.07-0.21,1.58-0.36c1.29-0.4,1.66-1.21,1.03-2.43
		c-1.63-3.14-3.62-6.07-5.45-9.1c-6.44-10.7-12.87-21.42-19.31-32.12c-0.75-1.25-1.37-2.6-2.61-3.5c-1.58-1.14-3.35-1.47-5.25-1.34
		c-0.24,0.06-0.48,0.07-0.73,0.07c-0.48,0.04-0.97,0.06-1.46,0.03c-0.75,0.02-1.51,0.04-2.26,0.06c-0.72,0.13-1.46,0.14-2.19,0.11
		c-0.76,0.01-1.53,0.03-2.29,0.04c-0.23,0.05-0.47,0.08-0.7,0.08c-0.65,0.06-1.3,0.05-1.95,0.04c-1.09,0.02-2.18,0.03-3.27,0.05
		c-0.29,0.14-0.59,0.07-0.89,0.07c-0.18,0-0.35,0-0.53,0c-2.09,0.08-4.19,0.05-6.29,0.05c-1.39,0-2.79-0.01-4.18-0.01
		c-0.48,0.08-0.97,0.15-1.45,0.23c-2.31,0.38-4.06,1.51-5.07,3.68c-0.33,0.71-0.51,1.48-0.92,2.17c-0.94,1.58-1.86,3.17-2.47,4.92
		c-0.38,1.11-0.08,1.71,1,2.03c0.93,0.28,1.88,0.06,2.81,0.21c0.27,0,0.54-0.01,0.81-0.01c2.41-0.01,4.82-0.03,7.23-0.04
		c0.28-0.15,0.59-0.07,0.88-0.07c0.11,0,0.22,0,0.33,0c1.25-0.06,2.49-0.06,3.74-0.05c1.25-0.02,2.49-0.03,3.74-0.05
		c0.36-0.06,0.72-0.07,1.08-0.07c0.7-0.04,1.4-0.05,2.09-0.04c0.93-0.02,1.86-0.03,2.78-0.05c0.22-0.05,0.44-0.07,0.67-0.08
		c0.6-0.05,1.21-0.05,1.82-0.03c1.01-0.07,2.03-0.2,3.02-0.01c1.78,0.35,3.03,1.47,3.93,3.01c1.11,1.89,2.16,3.82,3.36,5.65
		C106.54,80.52,109.6,85.38,112.39,90.41z"/>
	<path class="st0" d="M197.98,122.03c-0.74-1.2-1.39-2.46-2.38-3.49c-0.64-0.66-1.38-0.7-1.92-0.13c-0.29,0.3-0.54,0.65-0.78,1
		c-2.23,3.27-4.04,6.8-6.09,10.18c-1.27,2.1-2.42,4.28-3.63,6.42c-1.47,2.61-2.98,5.18-4.38,7.83c-1.03,1.95-2.47,3.26-4.72,3.33
		c-2.55,0.08-5.1,0.01-7.65,0.01c-0.41,0.06-0.83,0.07-1.24,0.08c-0.81,0.04-1.62,0.06-2.43,0.04c-1.31,0.02-2.63,0.03-3.94,0.05
		c-0.89,0.12-1.79,0.1-2.68,0.09c-0.74,0.01-1.49,0.01-2.23,0c-0.85,0.02-1.69,0.05-2.54-0.08c-0.82-0.02-1.64-0.03-2.46-0.05
		c-0.51,0.04-1.01,0.02-1.5-0.11c0,0,0,0,0,0c-0.43-0.02-0.86-0.04-1.29-0.05c-0.34,0.03-0.68,0.02-1.01-0.11c0,0,0,0,0,0
		c-1.5,0.01-3.01-0.04-4.51,0.15c-2.67,0.33-5.09,1.21-7.04,3.12c-2.24,2.2-3.57,4.93-4.42,7.92c-0.03,0.49-0.09,0.98,0.01,1.47
		c0.22,0.3,0.44,0.55,0.85,0.68c0.44,0.14,0.89,0.04,1.31,0.19c1.26,0,2.52-0.01,3.78-0.01c3.62-0.01,7.24-0.02,10.86-0.03
		c0.12-0.08,0.25-0.09,0.39-0.09c0.16-0.01,0.31,0,0.47,0.01c9.71-0.02,19.42-0.05,29.13-0.04c1.92,0,3.83,0.07,5.75-0.01
		c2.04-0.42,3.69-1.45,4.73-3.27c1.38-2.41,2.65-4.88,4-7.32c2.03-3.67,4.1-7.31,6.22-10.92c1.38-2.35,3.05-4.55,4.03-7.13
		c0.87-2.3,0.91-4.54-0.66-6.55C199.23,124.17,198.63,123.09,197.98,122.03z"/>
	<path class="st0" d="M163.29,191.88c-0.29-0.03-0.58-0.11-0.88-0.16c-1.54-0.02-3.08-0.04-4.62-0.04c-1.73,0-3.45,0-5.18,0
		c-3.1,0.01-6.2,0.04-9.3,0.04c-1.69,0.02-3.38,0.03-5.08,0.05c-0.43,0.06-0.86,0.08-1.29,0.08c-0.84,0.04-1.68,0.06-2.53,0.03
		c-2.45,0.4-4.45-1-5.54-2.9c-1.74-3.02-3.53-6.01-5.35-8.99c-3.14-5.12-6.26-10.25-8.87-15.66c-1.24-2.57-2.79-4.9-5.16-6.6
		c-1.57-1.13-3.35-1.69-5.22-2.04c-0.2,0.01-0.39-0.01-0.58-0.05c-0.09-0.01-0.19-0.02-0.27-0.07c-0.81,0-1.62,0-2.43-0.01
		c-0.09,0.05-0.17,0.07-0.26,0.08c-0.24,0.05-0.48,0.05-0.73,0.04c-1.03,0.18-2.06,0.34-3.09,0.55c-0.55,0.11-1.06,0.35-1.24,0.97
		c0.01,0.33,0.01,0.65,0.02,0.98c0.08,0.19,0.09,0.39,0.19,0.6c0.49,1.08,1.13,2.06,1.73,3.08c2.3,3.92,4.66,7.8,6.92,11.75
		c2.12,3.71,4.39,7.34,6.55,11.02c3.37,5.74,6.69,11.51,10.05,17.26c1.23,2.1,3.07,3.2,5.54,3.2c0.88,0,1.75,0,2.63-0.01
		c0.39-0.07,0.78-0.09,1.18-0.09c0.65-0.04,1.31-0.05,1.96-0.02c1.1-0.02,2.19-0.03,3.29-0.05c0.25-0.15,0.53-0.07,0.79-0.08
		c0.06,0,0.11,0,0.17,0c1.05-0.07,2.1-0.07,3.16-0.04c3.35-0.09,6.71-0.1,10.06,0c1.7,0,3.39,0,5.09,0
		c0.43-0.07,0.85-0.13,1.28-0.22c2.59-0.52,4.46-1.9,5.3-4.47c0.16-0.49,0.43-0.92,0.67-1.37c0.78-1.45,1.6-2.87,2.28-4.36
		C165.12,193.09,165.24,192.11,163.29,191.88z"/>
	<path class="st0" d="M38.81,110.6c-2.69,4.9-5.35,9.82-8.29,14.58c-0.9,1.45-1.59,3-1.83,4.72c-0.22,1.57,0.02,3.05,1.02,4.27
		c0.86,1.05,1.5,2.22,2.24,3.34c0.77,1.17,1.43,2.4,2.4,3.43c0.09,0.1,0.16,0.22,0.17,0.36c0.79,0.17,1.35-0.17,1.82-0.79
		c1.23-1.59,2.12-3.39,3.12-5.12c3.39-5.89,6.66-11.84,9.91-17.81c0.51-0.94,1-1.89,1.52-2.82c0.92-1.65,2.34-2.56,4.24-2.71
		c1.47-0.07,2.94,0.13,4.4-0.12c1.02-0.13,2.04-0.05,3.06-0.07c0.85,0.01,1.69,0.12,2.53-0.09c0.75-0.11,1.51-0.06,2.27-0.07
		c0.9-0.01,1.8,0.12,2.7-0.1c1.09-0.13,2.18-0.06,3.27-0.06c2,0.03,4,0.02,6.01,0.01c0.76-0.01,1.53-0.05,2.29,0.05
		c0.56,0.18,1.15,0.12,1.72,0.11c0.43-0.01,0.86-0.01,1.29,0.06c0.85,0.19,1.7,0.14,2.56,0.04c1.58-0.16,3.14-0.39,4.64-0.95
		c2.42-0.91,4.23-2.55,5.63-4.69c1.13-1.73,1.87-3.64,2.52-5.58c0.16-0.4,0.19-0.79,0.02-1.2c-0.28-0.5-0.79-0.65-1.28-0.82
		c-0.32-0.11-0.66-0.06-0.98-0.06c-0.37,0-0.75,0.02-1.12,0c-1.41,0.05-2.83-0.13-4.23,0.12c-1.46,0.14-2.93,0.05-4.39,0.06
		c-1.5,0.01-3-0.14-4.49,0.1c-1.63,0.14-3.26,0.05-4.9,0.06c-1.72,0.01-3.44-0.15-5.15,0.1c-1.85,0.14-3.71,0.05-5.56,0.06
		c-1.94-0.05-3.88-0.01-5.82-0.02c-0.28,0-0.54,0.06-0.81,0.13c-2.61,0.15-5.22,0.04-7.83,0.07c-1.8-0.05-3.61-0.06-5.41,0.01
		c-2.69,0.34-4.47,1.83-5.59,4.26c-0.87,1.88-1.95,3.67-2.91,5.51c-0.1,0.19-0.2,0.39-0.4,0.51c-0.03,0.01-0.05,0.01-0.07,0.01
		C39.33,109.94,38.99,110.27,38.81,110.6z"/>
	<path class="st0" d="M39.15,109.49c0.19-0.12,0.3-0.32,0.4-0.51c0.96-1.84,2.04-3.63,2.91-5.51c1.13-2.43,2.91-3.92,5.59-4.26
		c1.8-0.07,3.61-0.06,5.41-0.01c2.61-0.03,5.22,0.08,7.83-0.07c0.26-0.07,0.53-0.13,0.81-0.13c1.94,0.01,3.88-0.03,5.82,0.02
		c1.85-0.01,3.71,0.08,5.56-0.06c1.71-0.25,3.43-0.09,5.15-0.1c1.63-0.02,3.27,0.08,4.9-0.06c1.49-0.24,2.99-0.09,4.49-0.1
		c1.46-0.01,2.93,0.07,4.39-0.06c1.41-0.25,2.82-0.07,4.23-0.12c0.37,0.02,0.75,0,1.12,0c0.33,0,0.66-0.06,0.98,0.06
		c0.49,0.17,1,0.32,1.28,0.82c0.17,0.4,0.14,0.8-0.02,1.2c-0.65,1.95-1.39,3.85-2.52,5.58c-1.4,2.14-3.21,3.77-5.63,4.69
		c-1.5,0.56-3.06,0.8-4.64,0.95c-0.85,0.1-1.71,0.15-2.56-0.04c-0.43-0.08-0.86-0.07-1.29-0.06c-0.58,0.01-1.16,0.07-1.72-0.11
		c-0.76-0.1-1.52-0.07-2.29-0.05c-2,0.01-4,0.03-6.01-0.01c-1.09,0-2.18-0.07-3.27,0.06c-0.89,0.22-1.8,0.1-2.7,0.1
		c-0.76,0.01-1.52-0.05-2.27,0.07c-0.84,0.21-1.69,0.1-2.53,0.09c-1.02,0.02-2.04-0.06-3.06,0.07c-1.46,0.25-2.94,0.06-4.4,0.12
		c-1.89,0.15-3.32,1.06-4.24,2.71c-0.52,0.93-1.01,1.88-1.52,2.82c-3.24,5.97-6.51,11.92-9.91,17.81c-1,1.73-1.89,3.53-3.12,5.12
		c-0.48,0.62-1.03,0.95-1.82,0.79c0,0.03,0,0.06,0,0.09c0.66,0.41,1.21,0.11,1.65-0.36c0.4-0.44,0.77-0.92,1.07-1.44
		c1.77-3.04,3.55-6.07,5.25-9.14c2.88-5.19,5.7-10.42,8.56-15.62c0.82-1.49,2.11-2.37,3.83-2.55c0.25-0.15,0.53-0.07,0.8-0.08
		c0.02,0,0.04,0,0.06,0c1.25-0.09,2.51-0.04,3.76-0.04c1.04-0.02,2.08-0.03,3.12-0.05c0.22-0.05,0.44-0.07,0.66-0.08
		c0.61-0.05,1.21-0.05,1.82-0.04c0.77-0.01,1.53-0.03,2.3-0.04c0.23-0.06,0.46-0.08,0.69-0.09c0.65-0.06,1.3-0.05,1.95-0.04
		c1.08-0.02,2.16-0.03,3.25-0.05c2.05-0.11,4.1-0.13,6.16,0.01c0.77,0.01,1.53,0.02,2.3,0.03c0.43-0.01,0.86-0.02,1.29,0.05
		c0.12,0.01,0.25,0.03,0.37,0.08c0.44,0.02,0.88,0.03,1.31,0.05c0.87,0,1.75-0.01,2.62-0.01c0.62-0.07,1.23-0.11,1.85-0.21
		c3.24-0.52,5.9-1.98,7.89-4.66c1.47-1.98,2.38-4.21,3.14-6.53c0-0.44,0-0.87,0-1.31c-0.3-0.52-0.82-0.7-1.35-0.86
		c-0.12-0.02-0.25-0.03-0.37-0.05c-0.22,0.01-0.43,0.04-0.63-0.08c-0.37,0-0.74,0-1.11,0c-0.28,0.15-0.59,0.07-0.88,0.07
		c-0.04,0-0.07,0-0.11,0c-1.1,0.06-2.2,0.06-3.31,0.05c-1.47,0.02-2.93,0.03-4.4,0.05c-0.29,0.13-0.59,0.06-0.89,0.07
		c-0.17,0-0.34,0-0.52,0c-1.03,0.04-2.06,0.07-3.09,0.03c-1.63,0.02-3.26,0.04-4.89,0.06c-0.29,0.13-0.59,0.06-0.89,0.07
		c-0.1,0-0.2,0-0.3,0c-1.32,0.06-2.64,0.06-3.96,0.05c-1.86,0.01-3.73,0.03-5.59,0.04c-0.28,0.15-0.59,0.07-0.88,0.08
		c-0.22,0-0.43,0-0.65,0c-1.69,0.07-3.37,0.05-5.06,0.05c-2.63,0.01-5.26,0.03-7.89,0.04c-0.27,0.14-0.57,0.07-0.85,0.08
		c-0.54,0.03-1.09,0.01-1.63,0c-0.21,0-0.41,0-0.62,0c-0.21,0-0.42,0-0.63,0c-0.62,0.02-1.25,0.03-1.87,0.04
		c-2.49,0.37-4.22,1.69-5.32,3.98c-1.05,2.19-2.28,4.29-3.43,6.43c0.01,0.01,0.01,0.02,0.02,0.03
		C39.11,109.5,39.13,109.5,39.15,109.49z"/>
	<path class="st0" d="M34.52,141.29c-0.01-0.14-0.07-0.26-0.17-0.36c-0.97-1.03-1.63-2.26-2.4-3.43c-0.74-1.12-1.37-2.29-2.24-3.34
		c-1-1.21-1.24-2.7-1.02-4.27c0.24-1.73,0.93-3.27,1.83-4.72c2.95-4.76,5.6-9.68,8.29-14.58c0.18-0.33,0.51-0.65,0.27-1.09
		c-0.01,0-0.01,0-0.02,0c0.01,0.22-0.13,0.39-0.23,0.56c-2.65,4.94-5.35,9.86-8.29,14.64c-0.72,1.17-1.34,2.38-1.75,3.7
		c-0.78,2.5-0.43,4.75,1.39,6.72c0.27,0.3,0.46,0.67,0.68,1.02c1.15,1.76,2.08,3.67,3.59,5.17c0.02-0.01,0.03-0.02,0.05-0.03
		C34.51,141.29,34.51,141.29,34.52,141.29z"/>
	<path class="st0" d="M34.5,141.29c-0.02,0.01-0.03,0.02-0.05,0.03c0.02,0.02,0.04,0.04,0.06,0.06c0-0.03,0-0.06,0-0.09
		C34.51,141.29,34.51,141.29,34.5,141.29z"/>
	<path class="st0" d="M39.08,109.5c-0.01-0.01-0.01-0.02-0.02-0.03c0,0.01,0,0.02,0,0.04C39.07,109.51,39.08,109.51,39.08,109.5z"/>
	<path class="st0" d="M397.73,133.88c-2.3-6.12-4.59-12.25-6.89-18.38c-2.87-7.65-5.73-15.31-8.6-22.96
		c-1.22-3.25-2.41-6.51-3.66-9.75c-0.36-0.94-1.11-1.56-2.17-1.61c-1.11-0.05-2.13,0.2-2.61,1.35c-0.35,0.83-0.63,1.7-0.95,2.54
		c-0.91,2.38-1.86,4.75-2.75,7.14c-0.9,2.42-1.75,4.86-2.65,7.28c-1.26,3.37-2.55,6.72-3.82,10.09c-0.81,2.14-1.59,4.28-2.39,6.42
		c-0.72,1.91-1.46,3.82-2.17,5.74c-0.75,2-1.46,4.01-2.21,6.01c-0.73,1.94-1.5,3.86-2.23,5.8c-0.75,2-1.45,4.01-2.19,6.01
		c-0.88,2.38-1.92,4.7-2.62,7.15c-0.24,0.83,0.27,2.12,1,2.59c1.15,0.74,3.16,0.2,3.8-1.55c1.83-5.04,3.76-10.04,5.61-15.07
		c0.25-0.68,0.57-0.87,1.28-0.87c9.8,0.03,19.59,0.03,29.39,0c0.73,0,1.07,0.26,1.29,0.88c1.02,2.76,2.07,5.51,3.06,8.28
		c0.76,2.14,1.66,4.23,2.38,6.38c0.27,0.8,0.55,1.76,1.54,2.07c1.35,0.42,2.81,0.17,3.4-1.77c-0.01-0.33-0.01-0.65-0.02-0.98
		C400.93,142.4,399.33,138.14,397.73,133.88z M389.29,126.94c-8.69,0.01-17.39,0-26.08,0.01c-0.58,0-0.85,0-0.57-0.73
		c4.47-11.78,8.92-23.56,13.37-35.35c0.06-0.17,0.15-0.33,0.28-0.63c4.61,12.27,9.17,24.41,13.72,36.55
		C389.78,127.04,389.52,126.94,389.29,126.94z"/>
	<path class="st0" d="M262.54,100.99c3.06-4.18,6.15-8.35,9.18-12.56c0.98-1.36,2.12-2.62,2.87-4.15c0-0.38,0.01-0.76,0.01-1.14
		c-0.3-0.94-0.92-1.56-1.86-1.86c-0.38,0-0.76,0.01-1.14,0.01c-0.71,0.08-1.17,0.52-1.55,1.06c-2.09,2.9-4.12,5.86-6.28,8.72
		c-2.53,3.35-4.96,6.79-7.46,10.17c-2.31,3.12-4.61,6.25-6.85,9.41c-0.49,0.7-0.71,0.38-1.02-0.05c-1.49-2.04-2.98-4.07-4.47-6.12
		c-5.06-6.96-10.11-13.93-15.18-20.88c-0.6-0.82-1.05-1.82-2.16-2.14c-0.44,0-0.87,0.01-1.31,0.01c-0.98,0.23-1.49,0.9-1.69,1.84
		c0,0,0,0,0,0c0,0,0,0,0,0c0.01,0.38,0.01,0.76,0.02,1.14c0.06,0.23,0.09,0.44,0.26,0.66c1.88,2.56,3.73,5.14,5.6,7.7
		c3.24,4.45,6.49,8.9,9.73,13.35c2.1,2.88,4.21,5.76,6.32,8.62c0.31,0.42,0.38,0.76,0.04,1.21c-1.5,1.97-2.9,4.02-4.39,6.01
		c-2.52,3.36-4.95,6.78-7.45,10.16c-2.59,3.51-5.15,7.03-7.7,10.57c-0.89,1.23-1.93,2.36-2.57,3.76c-0.01,0.44-0.01,0.87-0.02,1.31
		c0.21,1.02,0.89,1.65,1.86,1.78c0.94,0.13,1.8-0.18,2.37-1.08c0.42-0.67,0.93-1.27,1.39-1.91c3.84-5.23,7.68-10.47,11.52-15.7
		c2.65-3.61,5.3-7.23,7.93-10.85c0.33-0.45,0.52-0.53,0.88-0.03c1.42,1.98,2.87,3.94,4.32,5.9c3.04,4.12,6.04,8.26,9.08,12.37
		c2.54,3.44,5.01,6.95,7.6,10.36c0.76,1.01,2.18,1.26,3.18,0.55c1.18-0.84,1.45-2.32,0.63-3.44c-2.43-3.3-4.85-6.61-7.27-9.92
		c-4.87-6.66-9.73-13.33-14.62-19.98c-0.26-0.35-0.27-0.54-0.01-0.88C255.73,110.33,259.13,105.66,262.54,100.99z"/>
	<path class="st0" d="M338.16,102.23c0-1.15,0.01-2.3,0.01-3.44c-0.12-0.75-0.22-1.5-0.38-2.24c-1-4.82-3.48-8.72-7.38-11.71
		c-2.88-2.21-6.17-3.4-9.75-3.87c-0.27,0.01-0.55,0.01-0.82-0.03c-0.12-0.01-0.23-0.03-0.34-0.08c-6.64,0.01-13.27,0.01-19.91,0.03
		c-1.69,0.01-2.21,0.67-2.52,1.78c-0.01,0.41-0.03,0.82-0.03,1.23c0,20.77,0,41.54-0.01,62.31c0,0.32,0.09,0.66-0.08,0.97
		c0.07,1.16,0.68,2.07,1.53,2.29c1.99,0.52,3.38-0.55,3.38-2.61c0-8.52,0-17.03,0.01-25.55c0-0.32-0.08-0.66,0.08-0.97
		c0.25-0.16,0.53-0.08,0.8-0.08c0.15,0,0.3,0,0.45,0c1.54-0.08,3.08-0.05,4.62-0.04c2.36-0.01,4.72-0.03,7.08-0.04
		c0.25-0.15,0.53-0.07,0.8-0.08c0.2,0,0.39,0,0.59,0c1.18-0.04,2.37,0,3.56-0.04C329.7,119.32,337.14,111.86,338.16,102.23z
		 M321.6,115.13c-0.8,0.17-1.62,0.26-2.45,0.26c-5.51,0-11.03-0.01-16.54,0.02c-0.63,0-0.76-0.17-0.76-0.77
		c0.03-4.69,0.01-9.38,0.01-14.07c0-4.69,0.01-9.38-0.01-14.07c0-0.6,0.13-0.78,0.76-0.78c5.57,0.03,11.14,0,16.71,0.02
		c6.9,0.03,13.29,5.68,14.19,12.52C334.59,106.43,329.65,113.43,321.6,115.13z"/>
	<path class="st0" d="M40.66,149.59c-4.44,2.24-6.92,5.83-6.93,10.81c-0.01,6.17,4.55,10.86,10.2,11.59
		c1.25,0.16,2.46,0.11,3.68-0.08c0.28-0.04,0.57-0.14,0.82,0.08c0-0.01,0-0.01,0-0.02c0.22-0.33,0.59-0.37,0.92-0.49
		c4.09-1.53,6.66-4.4,7.64-8.67c0.07-0.29,0.14-0.59,0.22-0.88c0.1-0.28,0.09-0.58,0.08-0.87c0-0.49,0-0.97,0-1.46
		c0.01-0.29,0.03-0.59-0.07-0.88c-0.26-1.09-0.53-2.19-0.99-3.22c-0.24-0.54-0.07-1.01,0.18-1.48c1.69-3.17,3.36-6.35,5.17-9.45
		c1.84-3.15,3.84-6.2,5.72-9.33c1.62-2.7,1.98-5.58,0.98-8.62c-0.76-2.29-1.93-4.36-3.34-6.3c-1.41-1.93-2.52-1.91-3.86,0.09
		c-1.27,1.89-2.31,3.92-3.43,5.9c-2.6,4.58-5.11,9.2-7.68,13.8c-1.41,2.51-2.84,5.01-4.29,7.5c-0.21,0.36-0.4,0.72-0.84,0.86
		c-0.32,0.08-0.67,0.03-0.99,0.16c-0.78,0.15-1.54,0.41-2.35,0.46c-0.04-0.01-0.08-0.02-0.11-0.04
		C41.29,149.41,40.93,149.45,40.66,149.59z M45.46,154.1c3.39,0.02,6.23,2.84,6.27,6.23c0.04,3.41-2.82,6.27-6.28,6.27
		c-3.44,0-6.22-2.76-6.23-6.2C39.21,156.94,42.04,154.08,45.46,154.1z"/>
	<path class="st0" d="M41.5,149.08c0.8-0.05,1.56-0.31,2.35-0.46c0.32-0.12,0.66-0.08,0.99-0.16c0.44-0.13,0.63-0.5,0.84-0.86
		c1.45-2.49,2.88-4.98,4.29-7.5c2.57-4.59,5.09-9.22,7.68-13.8c1.12-1.98,2.16-4.01,3.43-5.9c1.34-2,2.45-2.03,3.86-0.09
		c1.41,1.93,2.58,4,3.34,6.3c1,3.03,0.64,5.92-0.98,8.62c-1.88,3.12-3.88,6.17-5.72,9.33c-1.81,3.11-3.48,6.28-5.17,9.45
		c-0.25,0.48-0.43,0.94-0.18,1.48c0.46,1.03,0.73,2.12,0.99,3.22c0.1,0.29,0.08,0.58,0.07,0.88c0,0.48,0,0.97,0,1.46
		c0.01,0.29,0.03,0.59-0.08,0.87c-0.08,0.29-0.16,0.58-0.22,0.88c-0.98,4.27-3.55,7.13-7.64,8.67c-0.33,0.12-0.7,0.16-0.92,0.49
		c0,0.01,0,0.01,0,0.02c0.01,0.01,0.02,0.01,0.03,0.02c0.12-0.06,0.24-0.13,0.36-0.17c2.26-0.69,4.18-1.89,5.74-3.69
		c1.56-1.8,2.4-3.89,2.84-6.19c-0.01-0.21-0.01-0.42,0.04-0.62c0.01-0.07,0.03-0.14,0.07-0.21c0-0.52-0.01-1.05-0.01-1.57
		c-0.09-0.17-0.07-0.35-0.07-0.53c-0.01-0.11-0.03-0.23-0.04-0.34c-0.12-0.5-0.15-1.05-0.38-1.48c-0.9-1.69-0.48-3.09,0.41-4.73
		c3.02-5.59,6.18-11.09,9.64-16.42c1.72-2.65,2.46-5.52,1.65-8.65c-0.51-1.98-1.43-3.79-2.5-5.52c-0.6-0.97-1.18-1.96-2.06-2.72
		c-0.64-0.55-1.51-0.68-2-0.2c-0.39,0.37-0.82,0.72-1.12,1.19c-1.34,2.09-2.51,4.29-3.73,6.44c-1.46,2.58-2.97,5.13-4.36,7.74
		c-2.12,3.96-4.34,7.86-6.59,11.74c-0.45,0.77-0.74,1.66-1.48,2.25c-0.09,0.05-0.18,0.07-0.27,0.08c-0.24,0.05-0.49,0.05-0.73,0.05
		c-0.82,0.19-1.64,0.39-2.46,0.58c0,0.01-0.01,0.02-0.01,0.03C41.43,149.06,41.46,149.08,41.5,149.08z"/>
	<path class="st0" d="M47.61,171.91c-1.22,0.19-2.43,0.24-3.68,0.08c-5.65-0.73-10.21-5.41-10.2-11.59
		c0.01-4.98,2.49-8.57,6.93-10.81c0.27-0.14,0.63-0.17,0.73-0.54c-0.01,0-0.02-0.01-0.03-0.01c-0.21,0.1-0.41,0.2-0.62,0.29
		c-4.44,1.91-7.39,6.46-7.25,11.19c0.14,5.04,3.16,9.3,7.79,11.05c2.35,0.89,4.73,0.93,7.16,0.45c0-0.01,0-0.02,0-0.03
		C48.18,171.77,47.89,171.86,47.61,171.91z"/>
	<path class="st0" d="M48.43,172.01c0.01,0,0.02,0,0.03-0.01c-0.01-0.01-0.02-0.01-0.03-0.02C48.43,172,48.44,172,48.43,172.01z"/>
	<path class="st0" d="M41.39,149.05c0-0.01,0.01-0.02,0.01-0.03c-0.01,0.01-0.03,0.01-0.04,0.02
		C41.37,149.04,41.38,149.04,41.39,149.05z"/>
	<path class="st0" d="M173.24,100.91c0.08,0.72,0,1.51,0.27,2.15c0.38,0.92,0.14,1.62-0.33,2.36c-0.3,0.47-0.53,0.99-0.8,1.48
		c-1.18,2.09-2.37,4.18-3.54,6.27c-1.94,3.45-4.08,6.78-6.26,10.07c-1.59,2.4-2.36,5-1.92,7.79c0.54,3.34,2.28,6.2,4.33,8.85
		c0.68,0.88,1.61,1.01,2.54,0.24c0.47-0.39,0.82-0.88,1.14-1.38c3.35-5.4,6.4-10.98,9.57-16.48c1.82-3.16,3.66-6.31,5.5-9.46
		c0.23-0.4,0.51-0.58,1.04-0.54c1.87,0.14,3.68-0.23,5.37-1.03c4.02-1.9,6.35-5.11,7.07-9.49c0.01-0.11,0.02-0.22,0.04-0.33
		c0-0.23-0.04-0.46,0.08-0.68c0-0.32,0-0.63,0-0.95c-0.12-0.21-0.08-0.45-0.08-0.68c-0.01-0.11-0.02-0.22-0.04-0.33
		c-0.07-0.32-0.14-0.63-0.21-0.95c-0.91-4.05-3.27-6.91-7.05-8.6c-1.79-0.8-3.68-1.02-5.62-0.99c-0.26,0.14-0.54,0.14-0.83,0.13
		c-3.12,0.48-5.72,1.9-7.7,4.37c-1.6,2-2.42,4.3-2.55,6.86C173.25,100.04,173.25,100.47,173.24,100.91z M185.38,94
		c3.37,0.04,6.2,2.97,6.13,6.33c-0.08,3.47-2.92,6.23-6.37,6.18c-3.4-0.05-6.17-2.91-6.12-6.33C179.07,96.74,181.93,93.96,185.38,94
		z"/>
	<path class="st0" d="M117.55,63.54c1.18,0.97,2.44,1.73,3.89,2.23c0.65,0.23,1.47,0.11,1.93,0.91c1.22,2.11,2.55,4.15,3.76,6.26
		c2.24,3.89,4.38,7.84,6.34,11.89c0.87,1.79,1.96,3.4,3.66,4.58c1.83,1.28,3.87,1.8,6.03,1.99c0.17,0.02,0.35,0.03,0.52,0.05
		c0.28-0.01,0.56-0.04,0.83,0.07c0.92,0,1.83,0,2.75,0c0.1-0.05,0.21-0.07,0.32-0.08c0.28-0.05,0.56-0.05,0.85-0.05
		c2.35-0.41,2.79-1.23,1.82-3.43c-0.66-1.51-1.51-2.92-2.33-4.35c-2.4-4.2-4.83-8.38-7.24-12.58c-1.74-3.04-3.48-6.09-5.21-9.14
		c-0.17-0.3-0.33-0.57-0.08-0.97c1.61-2.53,2.3-5.26,1.85-8.27c-0.43-2.85-1.68-5.24-3.79-7.18c-1.78-1.64-3.92-2.56-6.27-3.03
		c-0.28,0.01-0.57,0.01-0.83-0.13c-0.65,0-1.3,0-1.95,0c-0.26,0.14-0.54,0.14-0.83,0.13c-2.64,0.45-4.93,1.5-6.82,3.49
		c-2.1,2.21-3.29,4.75-3.4,7.8c-0.07,1.9,0.17,3.73,0.98,5.49C115.11,60.9,116.12,62.36,117.55,63.54z M125.32,48.09
		c3.47-0.02,6.31,2.82,6.31,6.32c0,3.39-2.82,6.18-6.25,6.18c-3.46,0-6.27-2.8-6.27-6.25C119.11,50.95,121.92,48.12,125.32,48.09z"
		/>
	<path class="st0" d="M183.7,166.23c-1.87-1.75-4.12-2.72-6.63-3.15c-0.25,0.01-0.49,0.01-0.73-0.04c-0.09-0.01-0.18-0.03-0.27-0.08
		c-0.37,0-0.74,0-1.11,0c-0.09,0.05-0.18,0.07-0.28,0.08c-0.24,0.04-0.48,0.04-0.72,0.04c-2.81,0.4-5.35,1.46-7.19,3.62
		c-0.79,0.92-1.56,1.09-2.58,1.06c-0.19-0.01-0.38-0.01-0.57-0.02c-0.83,0.15-1.66,0.14-2.5,0.11c-3.3,0.1-6.6,0.11-9.89,0
		c-0.83,0.04-1.66,0.03-2.48-0.11c-0.6-0.01-1.2-0.03-1.8-0.04c-0.41,0.01-0.82,0.02-1.22-0.04c-0.15-0.01-0.29-0.03-0.43-0.09
		c-0.38-0.01-0.76-0.02-1.15-0.03c-0.55,0-1.09,0-1.64,0c-2.73,0.16-5.14,1.08-7.04,3.08c-1.2,1.26-2.16,2.71-3,4.25
		c-0.6,1.1-1.26,2.16-1.51,3.4c-0.01,0.33-0.01,0.65-0.02,0.98c0.05,0.4,0.25,0.62,0.62,0.86c0.76,0.48,1.59,0.38,2.39,0.5
		c4.06,0,8.12,0.01,12.17,0.01c3.11-0.02,6.23-0.04,9.34-0.06c0.87-0.1,1.74-0.09,2.61-0.08c0.73-0.01,1.46-0.01,2.19,0
		c0.78-0.02,1.56-0.05,2.34,0.09c0.38-0.01,0.77,0.02,1.15-0.03c0.75-0.1,1.19,0.17,1.53,0.86c0.32,0.64,0.78,1.21,1.28,1.75
		c2.31,2.48,5.15,3.79,8.55,3.88c0.27,0,0.54,0,0.81,0c2.41-0.14,4.63-0.85,6.59-2.28c2.92-2.14,4.52-5.06,4.98-8.62
		c0-0.77,0-1.53,0-2.3C187.06,170.87,185.89,168.29,183.7,166.23z M175.52,181.25c-3.53,0.02-6.35-2.71-6.37-6.14
		c-0.02-3.56,2.72-6.35,6.23-6.36c3.64-0.01,6.47,2.71,6.48,6.22C181.86,178.46,179.06,181.23,175.52,181.25z"/>
	<path class="st0" d="M105.76,216.28c0.01-0.02,0.01-0.05,0.04-0.07c0.65-0.24,1.34-0.24,2.01-0.39c4.69-1.09,8.21-4.87,8.98-9.62
		c0.06-0.38,0.14-0.75,0.21-1.13c0.14-0.48,0.13-0.96,0.01-1.44c-0.29-1.91-0.71-3.77-1.77-5.43c-1.7-2.65-4.03-4.46-7.08-5.26
		c-0.71-0.19-1.21-0.52-1.61-1.14c-2.57-4.05-5.06-8.15-7.33-12.38c-1.07-2-2.12-4.02-3.19-6.03c-1.74-3.29-4.54-5.02-8.19-5.46
		c-0.73-0.09-1.47-0.16-2.21-0.24c-0.67-0.13-1.34-0.12-2,0c-0.82,0.09-1.64,0.12-2.45,0.28c-1.49,0.29-1.89,0.94-1.42,2.4
		c0.5,1.55,1.4,2.91,2.21,4.31c4.23,7.31,8.66,14.5,12.88,21.81c0.41,0.71,0.43,1.27,0.01,1.97c-0.81,1.36-1.28,2.84-1.46,4.42
		c-0.12,0.92-0.11,1.83,0,2.75c0.48,4.09,2.59,7.09,6.12,9.11c1.29,0.74,2.7,1.2,4.2,1.32c0.25,0.02,0.5,0,0.71,0.15
		c0.02,0.02,0.03,0.05,0.04,0.07C104.9,215.95,105.33,215.95,105.76,216.28z M98.88,204.37c-0.02-3.42,2.83-6.31,6.24-6.33
		c3.42-0.02,6.26,2.82,6.27,6.29c0.01,3.46-2.8,6.27-6.27,6.26C101.71,210.58,98.9,207.79,98.88,204.37z"/>
	<path class="st0" d="M104.43,216.21c-0.22-0.15-0.47-0.13-0.71-0.15c-1.5-0.12-2.91-0.58-4.2-1.32c-3.53-2.02-5.65-5.02-6.12-9.11
		c-0.11-0.92-0.12-1.83,0-2.75c0.18-1.57,0.65-3.06,1.46-4.42c0.42-0.7,0.39-1.27-0.01-1.97c-4.21-7.32-8.64-14.51-12.88-21.81
		c-0.81-1.4-1.71-2.75-2.21-4.31c-0.47-1.47-0.07-2.11,1.42-2.4c0.81-0.16,1.63-0.18,2.45-0.28c0.67-0.12,1.33-0.12,2,0
		c0.74,0.08,1.47,0.15,2.21,0.24c3.66,0.43,6.45,2.17,8.19,5.46c1.06,2.01,2.11,4.03,3.19,6.03c2.27,4.23,4.76,8.32,7.33,12.38
		c0.39,0.62,0.89,0.96,1.61,1.14c3.06,0.8,5.38,2.61,7.08,5.26c1.07,1.66,1.48,3.52,1.77,5.43c0.12,0.48,0.13,0.96-0.01,1.44
		c-0.07,0.38-0.14,0.75-0.21,1.13c-0.77,4.75-4.3,8.52-8.98,9.62c-0.66,0.15-1.36,0.15-2.01,0.39c-0.02,0.02-0.03,0.05-0.04,0.07
		c0.01,0.01,0.02,0.01,0.03,0.02v0l0,0c5.97-0.37,10.8-4.83,11.39-11.22c0-0.49,0-0.98,0-1.47c-0.07-0.54-0.1-1.09-0.23-1.61
		c-1.2-4.79-4.08-7.98-8.93-9.26c-0.6-0.16-0.95-0.48-1.28-0.98c-3.78-5.83-7.18-11.88-10.34-18.06c-1.07-2.08-2.52-3.76-4.65-4.83
		c-1.92-0.96-3.98-1.17-6.06-1.34c-0.71,0-1.42,0.01-2.13,0.01c-0.76,0.07-1.52,0.13-2.28,0.21c-1.29,0.14-2.17,0.87-1.98,1.78
		c0.18,0.83,0.46,1.68,0.86,2.42c0.98,1.8,2.06,3.55,3.1,5.32c1.61,2.74,3.16,5.52,4.84,8.23c2.35,3.8,4.56,7.68,6.82,11.52
		c0.22,0.37,0.17,0.65-0.05,1.03c-0.85,1.47-1.48,3.03-1.64,4.75c0,0.98,0,1.97,0,2.95c0.49,5.61,5.55,10.47,11.23,10.56
		c0.01-0.01,0.01-0.01,0.02-0.01C104.46,216.26,104.46,216.23,104.43,216.21z"/>
	<path class="st0" d="M104.47,216.28c0,0,0.01,0.01,0.01,0.01c0.42,0,0.85,0,1.27,0.01c0-0.01,0.01-0.01,0.01-0.02
		C105.33,215.95,104.9,215.95,104.47,216.28z"/>
	<path class="st0" d="M104.47,216.28c-0.01,0.01-0.01,0.01-0.02,0.01c0.01,0,0.02,0,0.03,0
		C104.48,216.29,104.47,216.29,104.47,216.28z"/>
	<path class="st0" d="M105.76,216.28c0,0.01-0.01,0.01-0.01,0.02c0.01,0,0.02,0,0.03,0v0C105.77,216.29,105.76,216.29,105.76,216.28
		z"/>
	<path class="st0" d="M95.72,78.34c-2.8,0-5.59-0.01-8.39-0.01c-1.47,0.02-2.95,0.04-4.42,0.05c-0.43,0.06-0.87,0.08-1.3,0.08
		c-0.84,0.04-1.68,0.06-2.51,0.03c-1.37,0.02-2.74,0.03-4.1,0.05c-0.28,0.15-0.59,0.07-0.88,0.07c-0.1,0-0.21,0-0.31,0
		c-1.42,0.07-2.83,0.06-4.25,0.05c-0.82,0.01-1.65-0.03-2.46,0.05c-0.84,0.09-1.37-0.17-1.77-0.93c-0.25-0.47-0.65-0.88-1.03-1.26
		c-2.03-2.03-4.44-3.27-7.34-3.61c-3.49-0.4-6.6,0.47-9.25,2.72c-2.28,1.95-3.7,4.46-4.04,7.51c0,0.24,0,0.49-0.05,0.73
		c-0.01,0.09-0.03,0.18-0.08,0.27c0,0.43,0,0.86,0,1.29c0.05,0.09,0.07,0.18,0.08,0.27c0.05,0.24,0.05,0.48,0.05,0.73
		c0.03,0.32,0.02,0.66,0.11,0.96c0.65,2.27,1.64,4.32,3.38,6.01c2.11,2.05,4.56,3.21,7.49,3.37c4.3,0.23,7.83-1.29,10.47-4.7
		c0.37-0.48,0.75-0.64,1.3-0.54c0.14-0.05,0.28-0.07,0.42-0.08c0.41-0.06,0.82-0.06,1.23-0.04c0.66-0.01,1.31-0.03,1.97-0.04
		c0.22-0.04,0.45-0.06,0.67-0.08c0.87-0.08,1.75-0.06,2.63-0.04c1.6,0,3.19-0.01,4.79-0.01c1.11-0.01,2.23-0.04,3.34,0.11
		c0,0,0,0,0,0c0.64,0.02,1.29,0.03,1.93,0.05c0.56-0.01,1.12-0.03,1.66,0.13c0.43,0,0.85,0,1.28,0c0.1-0.05,0.21-0.07,0.32-0.08
		c0.28-0.05,0.56-0.05,0.85-0.05c2.57-0.38,4.72-1.54,6.43-3.48c1.57-1.78,2.75-3.82,3.69-5.98C98.66,79.56,98.23,78.7,95.72,78.34z
		 M55.57,91.04c-3.43-0.01-6.23-2.79-6.25-6.21c-0.02-3.42,2.83-6.29,6.26-6.3c3.47-0.01,6.26,2.79,6.26,6.26
		C61.83,88.27,59.04,91.05,55.57,91.04z"/>
	<path class="st0" d="M387.4,163.95c-0.07-0.07-0.14-0.14-0.21-0.21c-0.33,0-0.65,0-0.98,0.01c-0.06,0.05-0.15,0.08-0.19,0.15
		c-2.04,3.41-4.08,6.82-6.12,10.23c-0.12,0.2-0.16,0.52-0.46,0.5c-0.24-0.02-0.25-0.32-0.35-0.5c-1.04-1.74-2.06-3.49-3.12-5.21
		c-1.05-1.7-1.96-3.48-3.11-5.11c-0.33-0.02-0.65-0.03-0.98-0.05c-0.16,0.14-0.17,0.33-0.17,0.53c0,4.22,0.01,8.45-0.01,12.67
		c0,0.43,0.16,0.5,0.52,0.47c0.27-0.02,0.54,0.02,0.78-0.15c0.02-3.25,0.03-6.5,0.05-9.75c0-0.22-0.05-0.47,0.06-0.63
		c0.08-0.13,0.17,0.08,0.22,0.19c0.43,0.77,0.84,1.55,1.29,2.31c1.37,2.32,2.76,4.63,4.14,6.94c0.19,0.31,0.29,0.74,0.73,0.76
		c0.45,0.02,0.49-0.43,0.66-0.72c0.13-0.21,0.27-0.4,0.4-0.61c1.74-2.89,3.47-5.78,5.21-8.67c0.04-0.11,0.08-0.29,0.23-0.15
		c0.07,0.07,0.03,0.26,0.03,0.39c0,3.32-0.01,6.63-0.01,9.95c0.44,0.27,0.89,0.19,1.33,0c0.02-2.44,0.04-4.88,0.05-7.31
		C387.4,167.95,387.39,165.95,387.4,163.95z"/>
	<path class="st0" d="M368.1,163.75c-0.2,0.04-0.3,0.19-0.39,0.35c-2.02,3.39-4.06,6.78-6.06,10.18c-0.32,0.54-0.43,0.38-0.67-0.03
		c-1.37-2.33-2.73-4.67-4.15-6.97c-0.74-1.19-1.28-2.51-2.24-3.55c-0.32,0.02-0.64,0.04-0.97,0.06c-0.03,0.18-0.09,0.37-0.09,0.55
		c0,4.31,0.01,8.61,0.02,12.92c0,0,0,0,0,0c0,0,0,0,0,0c1.13,0.38,1.37,0.22,1.37-0.91c0-2.91,0-5.81,0-8.72c0-0.22,0-0.45,0-0.88
		c0.71,1.19,1.3,2.16,1.88,3.14c1.36,2.27,2.73,4.53,4.05,6.82c0.4,0.69,0.67,0.37,0.94-0.02c0.37-0.53,0.68-1.1,1.01-1.66
		c1.59-2.66,3.19-5.32,4.78-7.98c0.06-0.1,0.11-0.34,0.24-0.13c0.05,0.08,0.06,0.19,0.05,0.31c0.05,0.12,0.01,0.27-0.02,0.4
		c0.01,3.21,0.01,6.41,0.01,9.62v0c1.09,0.38,1.35,0.22,1.35-0.84c0-3.92,0-7.84,0-11.76c0-0.3,0.04-0.6-0.14-0.87
		C368.75,163.78,368.43,163.76,368.1,163.75z"/>
	<path class="st0" d="M414.7,164.56c0-0.27,0.02-0.54-0.17-0.77c-0.38,0-0.76,0-1.14-0.01c-0.06,0.22-0.08,0.45-0.09,0.67
		c0,0.07,0.01,0.14,0.01,0.21c0,0.26,0,0.51,0,0.77c0,0.05,0,0.1,0,0.15c-0.01,2.75,0,5.5-0.01,8.24c0.01,0.12,0.06,0.26,0.05,0.39
		c0.01,0.14-0.01,0.28-0.19,0.37c-0.01,0.01-0.05-0.02-0.06-0.03c-0.02-0.02-0.03-0.05-0.05-0.07l0,0h0
		c-0.35-0.15-0.46-0.52-0.69-0.78c-1.69-1.98-3.33-4.01-5.05-5.97c-1.16-1.33-2.19-2.77-3.48-3.99c-0.27,0.03-0.53,0.07-0.8,0.1
		c0,0,0,0,0,0c-0.01,4.34,0,8.68-0.03,13.03c0,0.5,0.18,0.59,0.61,0.55c0.24-0.02,0.49,0,0.7-0.15c0.02-3.35,0.03-6.71,0.06-10.06
		c0-0.2-0.16-0.48,0.13-0.63c0.01-0.01,0.06,0.02,0.07,0.04c0.02,0.04,0.04,0.09,0.05,0.14c0.64,0.76,1.27,1.53,1.92,2.28
		c1.02,1.18,2.08,2.33,3.06,3.54c1.24,1.52,2.46,3.06,3.84,4.46c0.3,0.3,0.62,0.48,1.02,0.32c0.37-0.15,0.24-0.51,0.24-0.8
		C414.7,172.56,414.7,168.56,414.7,164.56z"/>
	<polygon class="st0" points="413.39,163.78 413.38,163.78 413.38,163.78 	"/>
	<path class="st0" d="M349.28,165.81c-2.82-3-8.07-3-10.72,0.59c-1.64,2.23-1.67,5.4-0.56,7.45c1.14,2.11,2.94,3.39,5.4,3.63
		c0.54,0,1.09,0,1.63,0c3.46-0.51,5.8-3.14,6.14-6.47c0-0.33-0.01-0.65-0.01-0.98C350.97,168.44,350.39,167,349.28,165.81z
		 M344.3,176.15c-3.11,0.01-5.6-2.47-5.59-5.57c0-3.1,2.49-5.61,5.58-5.61c3.07-0.01,5.61,2.52,5.61,5.59
		C349.9,173.62,347.39,176.14,344.3,176.15z"/>
	<path class="st0" d="M273.98,164.43c0-0.21-0.07-0.43-0.11-0.64c-0.06,0.01-0.1-0.01-0.14-0.05c-0.33,0-0.65,0.01-0.98,0.01
		c-0.27,0.24-0.13,0.56-0.14,0.84c-0.03,1.76-0.04,3.52-0.06,5.27c-0.14,0.26-0.39,0.13-0.59,0.13c-2.41,0.01-4.81-0.01-7.22,0.02
		c-0.6,0.01-0.72-0.19-0.72-0.74c0-1.83,0.1-3.66-0.05-5.48c-0.05,0.01-0.1-0.01-0.13-0.05c-0.33,0-0.65,0-0.98,0
		c-0.2,0.08-0.17,0.26-0.17,0.42c0,4.26,0,8.53-0.01,12.79c0,0.33,0.06,0.51,0.44,0.47c0.29-0.03,0.6,0.04,0.86-0.15
		c0.02-1.71,0.02-3.42,0.05-5.13c0-0.25-0.15-0.54,0.13-0.74c2.65-0.01,5.3-0.02,7.95-0.05c0.42-0.01,0.49,0.17,0.48,0.53
		c-0.02,1.5-0.01,3-0.01,4.5c0,1.16,0.13,1.25,1.29,0.9c0.03-0.19,0.08-0.38,0.08-0.56C273.98,172.61,273.98,168.52,273.98,164.43z"
		/>
	<path class="st0" d="M243.93,164.31c-0.14-0.28-0.19-0.68-0.61-0.66c-0.42,0.02-0.41,0.44-0.54,0.7c-1.34,2.76-2.66,5.53-3.99,8.3
		c-0.65,1.35-1.29,2.7-1.93,4.05c-0.11,0.23-0.35,0.5-0.02,0.7c0.39,0.24,1.22-0.08,1.45-0.53c0.35-0.69,0.69-1.38,1.04-2.07
		c0.27-0.05,0.53-0.08,0.8-0.1c0.12-0.01,0.25-0.01,0.38-0.01c0.1,0,0.2-0.01,0.31-0.01c0.58,0,1.16,0.03,1.74,0.03
		c0.15,0,0.31,0,0.46,0c1.47-0.01,2.94-0.09,4.41,0.07c0,0,0,0,0,0c0.38,0.75,0.77,1.5,1.13,2.26c0.32,0.68,0.95,0.41,1.34,0.3
		c0.46-0.12,0.04-0.57-0.07-0.8C247.88,172.46,245.9,168.38,243.93,164.31z M239.95,173.43c1.14-2.43,2.26-4.81,3.45-7.36
		c0.25,0.51,0.44,0.87,0.61,1.24c0.95,2.02,1.91,4.04,2.89,6.12C244.55,173.43,242.31,173.43,239.95,173.43z"/>
	<path class="st0" d="M439.59,165.07c1.92,0.07,3.83,0.02,5.75,0.02c1.13,0,1.29-0.27,0.8-1.35c-2.6,0-5.21,0-7.81,0.01
		c-0.3,0-0.6,0.04-0.9,0.06c0.01,0.05-0.01,0.1-0.05,0.14c0.01,4.44,0.02,8.88,0.03,13.32c0.27,0.18,0.58,0.13,0.88,0.13
		c2.41,0,4.82,0,7.23,0c0.44,0,0.85,0.09,0.85-0.63c-0.01-0.66-0.28-0.76-0.84-0.76c-2.05,0.02-4.11-0.01-6.16,0.02
		c-0.51,0.01-0.65-0.15-0.63-0.65c0.04-1.15,0.04-2.3,0-3.45c-0.02-0.54,0.18-0.63,0.66-0.61c1.18,0.03,2.36,0,3.53,0.02
		c0.54,0.01,0.63-0.27,0.64-0.72c0.01-0.48-0.18-0.62-0.63-0.61c-1.12,0.02-2.25-0.05-3.37,0.03c-0.72,0.05-0.86-0.21-0.83-0.87
		c0.06-1.06,0.06-2.14,0-3.2C438.69,165.3,438.82,165.04,439.59,165.07z"/>
	<path class="st0" d="M289.15,176.09c-0.25,0-0.55,0.15-0.76-0.13l0,0c-0.15-1.51-0.15-3.03,0-4.54c1.33-0.02,2.66-0.06,3.99-0.05
		c0.49,0,0.76-0.1,0.77-0.67c0-0.58-0.28-0.66-0.77-0.66c-1.33,0-2.66-0.03-3.99-0.05c-0.15-1.6-0.15-3.21,0-4.81
		c2.16-0.14,4.33-0.03,6.49-0.06c1.13-0.02,1.27-0.19,0.91-1.3c-2.91-0.02-5.81-0.03-8.72-0.05c-0.17,0.11-0.14,0.28-0.14,0.44
		c0,4.22,0.01,8.43-0.02,12.65c0,0.6,0.32,0.58,0.71,0.58c2.44,0,4.88,0,7.32,0c1.07,0,1.19-0.18,0.85-1.28
		C293.59,176.12,291.37,176.11,289.15,176.09z"/>
	<polygon class="st0" points="399.22,163.78 399.22,163.78 399.22,163.78 	"/>
	<polygon class="st0" points="400.52,163.78 400.52,163.78 400.52,163.78 	"/>
	<path class="st0" d="M399.22,163.78c-0.01,2.71-0.02,5.41-0.03,8.12c0,0.32,0.07,0.66-0.12,0.96c0,0,0,0,0,0
		c-0.4,1.77-1.43,2.92-3.25,3.27c-0.42,0.18-0.84,0.18-1.26,0c0,0,0,0,0,0c-1.47,0.07-3.36-1.84-3.25-3.29
		c-0.13-0.25-0.13-0.52-0.13-0.8c0-2.7,0.01-5.4,0.01-8.1c-0.07-0.07-0.14-0.14-0.21-0.21c-0.38,0.02-0.76,0.04-1.14,0.06
		c0,2.88,0.07,5.76-0.03,8.63c-0.08,2.27,1.71,4.86,4.31,5.05c0.71,0,1.42,0,2.13,0c2.54-0.62,4.01-2.2,4.33-4.82
		c-0.02-2.95-0.04-5.91-0.06-8.86C400.09,163.79,399.65,163.78,399.22,163.78z"/>
	<path class="st0" d="M229.42,165.09c0.51-0.2,1.01-0.19,1.52,0c1.03,0.2,1.98,0.58,2.72,1.34c0.56,0.57,0.93,0.11,1.28-0.22
		c0.43-0.4-0.01-0.66-0.26-0.89c-1.21-1.09-2.68-1.61-4.28-1.67c-3.56-0.13-6.46,2.1-7.08,5.72c-0.01,0.11-0.03,0.21-0.04,0.32
		c0,0.18,0.03,0.37-0.07,0.53c0,0.25,0,0.49,0,0.74c0.08,0.16,0.07,0.33,0.07,0.5c0.02,0.12,0.03,0.25,0.05,0.37
		c0.42,2.77,2.85,5.41,5.96,5.64c0.6,0,1.2,0,1.8,0c1.31-0.2,2.46-0.72,3.49-1.55c0.36-0.29,0.72-0.56,0.28-1.05
		c-0.38-0.42-0.71-0.54-1.23-0.09c-1.37,1.19-2.95,1.64-4.78,1.22c-2.37-0.55-4.64-2.94-4.18-6.3
		C225,167.34,227.04,165.23,229.42,165.09z"/>
	<path class="st0" d="M334.83,165.2c-1.65-1.26-3.46-1.71-5.55-1.45c-3.06,0.38-5.29,2.95-5.68,5.63c-0.01,0.11-0.03,0.21-0.04,0.32
		c0,0.18,0.03,0.37-0.07,0.53c0,0.21,0,0.41-0.01,0.62c0.05,0.08,0.07,0.16,0.08,0.24c0.04,0.19,0.03,0.39,0.04,0.59
		c0.35,3.02,2.98,5.57,5.98,5.81c0.6,0,1.2,0,1.8,0c1.31-0.2,2.47-0.72,3.49-1.55c0.36-0.29,0.72-0.56,0.28-1.05
		c-0.38-0.42-0.72-0.53-1.23-0.08c-1.37,1.19-2.95,1.62-4.77,1.21c-2.35-0.53-4.64-2.92-4.18-6.31c0.33-2.41,2.47-4.49,4.75-4.61
		c0.51-0.2,1.01-0.19,1.52,0c0,0,0,0,0,0c1.09,0.21,2.06,0.66,2.85,1.45c0.14,0.14,0.24,0.2,0.48,0.1c0.34-0.14,0.73-0.3,0.81-0.62
		C335.47,165.67,335.11,165.4,334.83,165.2z"/>
	<path class="st0" d="M304.56,170.72c-1.22-0.56-2.51-0.99-3.73-1.55c-0.62-0.28-1.32-0.59-1.4-1.44c-0.2-0.34-0.2-0.67-0.01-1.01
		c0,0,0,0,0,0c0.18-0.91,0.99-1.55,2.1-1.64c0.41-0.18,0.83-0.2,1.24,0c0,0,0,0,0,0c0.93,0,1.65,0.56,2.36,1.03
		c0.51,0.33,0.73,0.28,1.04-0.15c0.35-0.5,0.08-0.74-0.32-1.04c-1.02-0.78-2.19-1.18-3.44-1.26c-1.18-0.07-2.38,0.1-3.33,0.91
		c-1.59,1.35-1.71,4.4,0.7,5.62c1.3,0.66,2.71,1.05,4.03,1.66c1.08,0.5,1.71,1.13,1.59,2.15c-0.12,1.09-0.86,1.67-1.75,1.96
		c-1.72,0.58-3.24,0.03-4.57-1.12c-0.37-0.32-0.69-0.59-1.09-0.12c-0.34,0.4-0.23,0.78,0.13,1.14c0.96,0.98,2.15,1.43,3.48,1.61
		c0.66,0,1.31,0,1.97,0c0.5-0.07,0.92-0.33,1.34-0.57c1.38-0.79,2.21-2.69,1.78-4.03C306.32,171.81,305.51,171.16,304.56,170.72z"/>
	<path class="st0" d="M258.45,170.72c-1.22-0.56-2.51-0.99-3.73-1.55c-0.62-0.28-1.32-0.59-1.39-1.44
		c-0.22-0.34-0.19-0.67-0.01-1.01c0,0,0,0,0,0c0,0,0,0,0,0c0.18-0.91,0.99-1.55,2.1-1.64c0.41-0.18,0.83-0.2,1.24,0c0,0,0,0,0,0
		c0.95-0.02,1.66,0.57,2.37,1.04c0.51,0.33,0.73,0.25,1.03-0.17c0.33-0.46,0.1-0.73-0.27-1c-1.05-0.78-2.23-1.23-3.52-1.29
		c-1.18-0.05-2.37,0.11-3.33,0.92c-1.6,1.37-1.6,4.43,0.71,5.6c1.3,0.66,2.72,1.03,4.03,1.66c0.79,0.38,1.61,0.79,1.58,1.9
		c-0.02,1.01-0.64,1.89-1.73,2.22c-1.7,0.53-3.2,0.03-4.52-1.08c-0.42-0.35-0.76-0.66-1.21-0.11c-0.39,0.47-0.08,0.81,0.25,1.14
		c0.94,0.96,2.12,1.38,3.42,1.56c0.66,0,1.31,0,1.97,0c0.5-0.07,0.92-0.33,1.34-0.57c1.37-0.79,2.2-2.7,1.78-4.03
		C260.21,171.81,259.4,171.16,258.45,170.72z"/>
	<path class="st0" d="M315.17,170.72c-1.09-0.55-2.26-0.87-3.37-1.36c-0.84-0.37-1.73-0.78-1.85-1.86
		c-0.15-1.34,0.59-2.16,2.13-2.41c0.45-0.19,0.9-0.2,1.35,0c0,0,0,0,0,0c0.78,0.16,1.55,0.4,2.13,0.94
		c0.46,0.42,0.77,0.43,1.14-0.02c0.45-0.54,0.04-0.85-0.32-1.13c-0.92-0.72-2-1.1-3.13-1.2c-1.82-0.15-4.1,0.37-4.63,2.74
		c0,0.55,0,1.09,0,1.64c0.33,1.3,1.37,1.91,2.44,2.47c1.35,0.7,2.91,0.91,4.18,1.8c0.54,0.37,0.88,1.23,0.73,1.86
		c-0.29,1.22-1.21,1.73-2.3,1.94c-1.57,0.31-2.89-0.29-4.03-1.34c-0.33-0.31-0.61-0.45-1-0.05c-0.42,0.43-0.44,0.77,0.03,1.14
		c1.07,0.85,2.18,1.57,3.61,1.62c0.66-0.01,1.31-0.01,1.97-0.02c1.74-0.46,2.71-1.65,3.18-3.33c0,0,0,0,0,0
		c-0.01-0.33-0.01-0.65-0.02-0.98C317.04,172,316.23,171.26,315.17,170.72z"/>
	<path class="st0" d="M455.44,170.97c-0.49-0.3-1.02-0.54-1.54-0.76c-0.93-0.4-1.9-0.71-2.81-1.15c-1.11-0.53-1.46-1.2-1.33-2.2
		c0.11-0.87,0.84-1.54,1.91-1.79c1.48-0.34,2.76,0.15,3.91,1.02c0.39,0.3,0.65,0.31,0.95-0.08c0.3-0.38,0.24-0.67-0.11-0.99
		c-1.48-1.35-4.18-1.78-6.03-0.95c-1.26,0.57-1.95,1.58-2.05,2.94c-0.1,1.27,0.51,2.2,1.55,2.88c0.71,0.47,1.5,0.79,2.29,1.1
		c0.74,0.28,1.5,0.52,2.22,0.85c0.86,0.4,1.52,1,1.45,2.07c-0.06,0.97-0.73,1.74-1.85,2.06c-1.71,0.49-3.18-0.05-4.49-1.15
		c-0.37-0.32-0.66-0.56-1.09-0.08c-0.43,0.48-0.15,0.79,0.19,1.1c1.16,1.06,2.53,1.6,3.88,1.63c1.36,0.12,2.39-0.18,3.28-0.91
		C457.82,174.92,457.67,172.33,455.44,170.97z"/>
	<path class="st1" d="M420.8,163.8c-0.09,0.23-0.1,0.47-0.09,0.71c0.01,0.13,0.01,0.26,0,0.39c0,0,0,0,0,0.01
		c0.24,0.25,0.55,0.18,0.85,0.19c1.22,0.02,2.45,0.04,3.67,0.06c0.18,0.25,0.08,0.53,0.08,0.79c0,1.83,0,3.66,0,5.49
		c0,0.55,0,1.1,0,1.65c0,0.13,0,0.26,0,0.39c0,0.91,0,1.82,0,2.72c0,0.15,0.01,0.3,0.02,0.45c0.01,0.2,0.02,0.4,0.03,0.6
		c0,0,0,0.01,0,0.01c0,0,0,0,0,0c0,0,0,0,0,0c1.13,0.34,1.34,0.21,1.34-0.85c0-3.56,0.01-7.12-0.01-10.69
		c0-0.48,0.08-0.67,0.62-0.65c1.01,0.05,2.03,0.01,3.04,0.01c1.03,0,1.19-0.27,0.79-1.31C427.71,163.73,424.26,163.72,420.8,163.8z"
		/>
	<polygon class="st1" points="420.71,164.9 420.71,164.9 420.71,164.9 	"/>
	<path class="st1" d="M420.81,163.78l-0.01,0.01c0,0,0,0,0,0C420.8,163.79,420.8,163.79,420.81,163.78
		C420.81,163.79,420.81,163.78,420.81,163.78z"/>
	<path class="st1" d="M282.4,176.04c-0.46,0.01-0.91,0.01-1.37,0c-0.46,0-0.93,0-1.39,0c-0.34,0.01-0.67,0.01-1,0
		c-0.26,0.01-0.53,0.06-0.78-0.09l0,0c-0.29-0.24-0.13-0.56-0.13-0.84c-0.01-3.45-0.01-6.9-0.01-10.35c0-0.33,0.05-0.66-0.09-0.97
		c-0.43,0.06-0.9-0.2-1.3,0.15c0,4.44,0.01,8.88,0.01,13.32c0.17,0.28,0.45,0.13,0.67,0.14c2.26,0.01,4.53,0.01,6.79,0.01
		c1.04,0,1.19-0.26,0.8-1.3C283.87,176.05,283.14,176.04,282.4,176.04z"/>
	<path class="st2" d="M434.62,163.79c-0.33-0.02-0.65-0.03-0.98-0.05c-0.07,0.07-0.14,0.14-0.21,0.21c0,4.44,0,8.88,0,13.32l0,0
		c1.11,0.37,1.33,0.23,1.33-0.86c0-3.89,0-7.78,0-11.67C434.76,164.42,434.81,164.08,434.62,163.79z"/>
	<path class="st2" d="M418.48,163.79c-0.33-0.02-0.65-0.03-0.98-0.05c-0.07,0.07-0.14,0.14-0.21,0.21c0,4.44,0,8.88,0,13.32
		c1.11,0.37,1.33,0.23,1.33-0.85c0-3.89,0-7.78,0-11.67C418.62,164.42,418.68,164.08,418.48,163.79z"/>
</g>
</svg>
